HIERARCHY
ROOT Root
{
	OFFSET 0.00000 0.00000 0.00000
	CHANNELS 6 Xposition Yposition Zposition Zrotation Xrotation Yrotation
	JOINT Hips
	{
		OFFSET 0 0 0	
		CHANNELS 3 Zrotation Xrotation Yrotation
		JOINT Spine
		{
			OFFSET 0 4 0	
			CHANNELS 3 Zrotation Xrotation Yrotation
			JOINT Spine1
			{
				OFFSET 0 19.4 0	
				CHANNELS 3 Zrotation Xrotation Yrotation
				JOINT Spine2
				{
					OFFSET 0 16.6 0	
					CHANNELS 3 Zrotation Xrotation Yrotation
					JOINT LeftCollar
					{
						OFFSET 0 10 0	
						CHANNELS 3 Zrotation Xrotation Yrotation
						JOINT LeftArm
						{
							OFFSET 15.6 -2 3	
							CHANNELS 3 Zrotation Xrotation Yrotation
							JOINT LeftForeArm
							{
								OFFSET 3.5 -27 -1	
								CHANNELS 3 Zrotation Xrotation Yrotation
								JOINT LeftHand
								{
									OFFSET 1 -27 1	
									CHANNELS 3 Zrotation Xrotation Yrotation
									End Site
									{
										OFFSET 0 -15 0
									}
								}
							}
						}
					}
					JOINT RightCollar
					{
						OFFSET 0 10 0	
						CHANNELS 3 Zrotation Xrotation Yrotation
						JOINT RightArm
						{
							OFFSET -15.6 -2 3	
							CHANNELS 3 Zrotation Xrotation Yrotation
							JOINT RightForeArm
							{
								OFFSET -3.5 -27 -1	
								CHANNELS 3 Zrotation Xrotation Yrotation
								JOINT RightHand
								{
									OFFSET -1 -27 1	
									CHANNELS 3 Zrotation Xrotation Yrotation
									End Site
									{
										OFFSET 0 -15 0
									}
								}
							}
						}
					}
					JOINT Neck
					{
						OFFSET 0 10 0	
						CHANNELS 3 Zrotation Xrotation Yrotation
						JOINT Head
						{
							OFFSET 0 12.7 3	
							CHANNELS 3 Zrotation Xrotation Yrotation
							End Site
							{
								OFFSET 0 12.7 3
							}
						}
					}
				}
			}
		}
	}
	JOINT LeftHip
	{
		OFFSET 0 0 0	
		CHANNELS 3 Zrotation Xrotation Yrotation
		JOINT LeftUpLeg
		{
			OFFSET 8.8 -6 0	
			CHANNELS 3 Zrotation Xrotation Yrotation
			JOINT LeftLeg
			{
				OFFSET 0 -39 2	
				CHANNELS 3 Zrotation Xrotation Yrotation
				JOINT LeftFoot
				{
					OFFSET 0 -43 -2	
					CHANNELS 3 Zrotation Xrotation Yrotation
					JOINT LeftFootFront
					{
						OFFSET 0 -7 8.5	
						CHANNELS 3 Zrotation Xrotation Yrotation
						End Site
						{
							OFFSET 0 -0.5 9
						}
					}
				}
				JOINT LeftHeel
				{
					OFFSET 0 -43 -2	
					CHANNELS 3 Zrotation Xrotation Yrotation
					End Site
					{
						OFFSET 0 -7.5 -5
					}
				}
			}
		}
	}
	JOINT RightHip
	{
		OFFSET 0 0 0	
		CHANNELS 3 Zrotation Xrotation Yrotation
		JOINT RightUpLeg
		{
			OFFSET -8.8 -6 0	
			CHANNELS 3 Zrotation Xrotation Yrotation
			JOINT RightLeg
			{
				OFFSET 0 -39 2	
				CHANNELS 3 Zrotation Xrotation Yrotation
				JOINT RightFoot
				{
					OFFSET 0 -43 -2	
					CHANNELS 3 Zrotation Xrotation Yrotation
					JOINT RightFootFront
					{
						OFFSET 0 -7 8.5	
						CHANNELS 3 Zrotation Xrotation Yrotation
						End Site
						{
							OFFSET 0 -0.5 9
						}
					}
				}
				JOINT RightHeel
				{
					OFFSET 0 -43 -2	
					CHANNELS 3 Zrotation Xrotation Yrotation
					End Site
					{
						OFFSET 0 -7.5 -5
					}
				}
			}
		}
	}
}
MOTION
Frames: 15
Frame Time: 0.05
0 95.5 0 -0 0 -0 -0 0 -0 -0 0 -0 20.314 23.546 -43.41 -0 0 -0 -0 0 -0 17.487 -30.935 -3.9207 -97.247 -55.889 -108.16 -0 0 -0 -0 0 -0 -9.6386 -61.491 -4.7102 -49.851 -47.282 -50.396 -0 0 -0 -26.309 -33.211 -12.438 -26.309 -33.211 -12.438 -0 0 -0 -0 0 -0 -0 0 -0 -0 0 -0 -0 0 -0 -0 0 -0 -0 0 -0 -0 0 -0 -0 0 -0 -0 0 -0 -0 0 -0 -0 0 -0 
0 95.5 0 -0 0 -0 -0 0 -0 -0 0 -0 20.151 23.863 -43.245 -0 0 -0 -0 0 -0 17.61 -30.645 -4.3542 -97.557 -56.121 -108.48 -0 0 -0 -0 0 -0 -10.728 -60.783 -6.1925 -48.619 -47.293 -53.037 -0 0 -0 -26.554 -33.345 -12.826 -26.554 -33.345 -12.826 -0 0 -0 -0 0 -0 -0 0 -0 -0 0 -0 -0 0 -0 -0 0 -0 -0 0 -0 -0 0 -0 -0 0 -0 -0 0 -0 -0 0 -0 -0 0 -0 
0 95.5 0 -0 0 -0 -0 0 -0 -0 0 -0 19.855 23.627 -42.889 -0 0 -0 -0 0 -0 17.275 -29.926 -5.0431 -97.912 -56.267 -109.01 -0 0 -0 -0 0 -0 -12.987 -59.802 -9.362 -46.143 -47.671 -54.331 -0 0 -0 -26.711 -33.197 -12.915 -26.711 -33.197 -12.915 -0 0 -0 -0 0 -0 -0 0 -0 -0 0 -0 -0 0 -0 -0 0 -0 -0 0 -0 -0 0 -0 -0 0 -0 -0 0 -0 -0 0 -0 -0 0 -0 
0 95.5 0 -0 0 -0 -0 0 -0 -0 0 -0 19.746 23.455 -42.801 -0 0 -0 -0 0 -0 16.95 -29.44 -5.4338 -98.021 -56.348 -109.3 -0 0 -0 -0 0 -0 -14.102 -59.403 -9.7532 -45.245 -46.683 -55.396 -0 0 -0 -26.715 -32.981 -12.864 -26.715 -32.981 -12.864 -0 0 -0 -0 0 -0 -0 0 -0 -0 0 -0 -0 0 -0 -0 0 -0 -0 0 -0 -0 0 -0 -0 0 -0 -0 0 -0 -0 0 -0 -0 0 -0 
0 95.5 0 -0 0 -0 -0 0 -0 -0 0 -0 19.536 23.225 -42.828 -0 0 -0 -0 0 -0 16.8 -28.85 -5.588 -98.15 -56.34 -109.28 -0 0 -0 -0 0 -0 -14.893 -59.084 -8.7401 -44.444 -45.325 -56.932 -0 0 -0 -26.689 -32.713 -12.802 -26.689 -32.713 -12.802 -0 0 -0 -0 0 -0 -0 0 -0 -0 0 -0 -0 0 -0 -0 0 -0 -0 0 -0 -0 0 -0 -0 0 -0 -0 0 -0 -0 0 -0 -0 0 -0 
0 95.5 0 -0 0 -0 -0 0 -0 -0 0 -0 19.461 23.092 -43.121 -0 0 -0 -0 0 -0 16.979 -28.343 -5.2915 -98.572 -56.215 -109.15 -0 0 -0 -0 0 -0 -14.698 -59.22 -7.0622 -43.555 -44.288 -57.026 -0 0 -0 -26.759 -32.619 -12.975 -26.759 -32.619 -12.975 -0 0 -0 -0 0 -0 -0 0 -0 -0 0 -0 -0 0 -0 -0 0 -0 -0 0 -0 -0 0 -0 -0 0 -0 -0 0 -0 -0 0 -0 -0 0 -0 
0 95.5 0 -0 0 -0 -0 0 -0 -0 0 -0 19.13 22.868 -43.609 -0 0 -0 -0 0 -0 17.427 -27.391 -4.7145 -99.091 -56.181 -109.36 -0 0 -0 -0 0 -0 -12.401 -59.381 -3.7734 -42.826 -43.309 -55.199 -0 0 -0 -26.853 -32.596 -13.126 -26.853 -32.596 -13.126 -0 0 -0 -0 0 -0 -0 0 -0 -0 0 -0 -0 0 -0 -0 0 -0 -0 0 -0 -0 0 -0 -0 0 -0 -0 0 -0 -0 0 -0 -0 0 -0 
0 95.5 0 -0 0 -0 -0 0 -0 -0 0 -0 19.043 22.604 -44.233 -0 0 -0 -0 0 -0 17.48 -26.795 -4.3201 -99.042 -56.435 -109.58 -0 0 -0 -0 0 -0 -10.292 -59.595 -0.81123 -41.708 -42.231 -52.103 -0 0 -0 -26.912 -32.698 -13.16 -26.912 -32.698 -13.16 -0 0 -0 -0 0 -0 -0 0 -0 -0 0 -0 -0 0 -0 -0 0 -0 -0 0 -0 -0 0 -0 -0 0 -0 -0 0 -0 -0 0 -0 -0 0 -0 
0 95.5 0 -0 0 -0 -0 0 -0 -0 0 -0 18.871 21.953 -44.544 -0 0 -0 -0 0 -0 17.313 -26.199 -4.1951 -99.08 -56.582 -109.47 -0 0 -0 -0 0 -0 -9.263 -59.434 0.90085 -40.843 -41.169 -48.911 -0 0 -0 -26.741 -32.697 -13.02 -26.741 -32.697 -13.02 -0 0 -0 -0 0 -0 -0 0 -0 -0 0 -0 -0 0 -0 -0 0 -0 -0 0 -0 -0 0 -0 -0 0 -0 -0 0 -0 -0 0 -0 -0 0 -0 
0 95.5 0 -0 0 -0 -0 0 -0 -0 0 -0 18.842 21.795 -44.516 -0 0 -0 -0 0 -0 17.273 -26.33 -4.1093 -98.956 -56.489 -109.43 -0 0 -0 -0 0 -0 -8.5758 -59.57 1.2609 -40.321 -40.726 -46.779 -0 0 -0 -26.379 -33.089 -13.163 -26.379 -33.089 -13.163 -0 0 -0 -0 0 -0 -0 0 -0 -0 0 -0 -0 0 -0 -0 0 -0 -0 0 -0 -0 0 -0 -0 0 -0 -0 0 -0 -0 0 -0 -0 0 -0 
0 95.5 0 -0 0 -0 -0 0 -0 -0 0 -0 18.892 21.83 -44.329 -0 0 -0 -0 0 -0 17.268 -26.845 -4.2651 -98.595 -56.51 -108.85 -0 0 -0 -0 0 -0 -7.8391 -59.906 0.6484 -40.22 -41.04 -45.086 -0 0 -0 -25.812 -33.839 -13.553 -25.812 -33.839 -13.553 -0 0 -0 -0 0 -0 -0 0 -0 -0 0 -0 -0 0 -0 -0 0 -0 -0 0 -0 -0 0 -0 -0 0 -0 -0 0 -0 -0 0 -0 -0 0 -0 
0 95.5 0 -0 0 -0 -0 0 -0 -0 0 -0 18.842 21.652 -44.039 -0 0 -0 -0 0 -0 17.138 -27.373 -4.4242 -97.994 -56.476 -108.22 -0 0 -0 -0 0 -0 -5.0443 -60.144 0.78827 -41.108 -42.312 -43.279 -0 0 -0 -24.898 -34.642 -13.931 -24.898 -34.642 -13.931 -0 0 -0 -0 0 -0 -0 0 -0 -0 0 -0 -0 0 -0 -0 0 -0 -0 0 -0 -0 0 -0 -0 0 -0 -0 0 -0 -0 0 -0 -0 0 -0 
0 95.5 0 -0 0 -0 -0 0 -0 -0 0 -0 18.608 20.829 -43.869 -0 0 -0 -0 0 -0 16.738 -27.425 -4.3761 -97.077 -56.371 -107.2 -0 0 -0 -0 0 -0 -1.7813 -60.301 1.4256 -42.898 -44.065 -42.423 -0 0 -0 -23.552 -35.403 -13.789 -23.552 -35.403 -13.789 -0 0 -0 -0 0 -0 -0 0 -0 -0 0 -0 -0 0 -0 -0 0 -0 -0 0 -0 -0 0 -0 -0 0 -0 -0 0 -0 -0 0 -0 -0 0 -0 
0 95.5 0 -0 0 -0 -0 0 -0 -0 0 -0 18.459 19.365 -44.058 -0 0 -0 -0 0 -0 16.068 -26.695 -3.9604 -96.601 -56.18 -106.51 -0 0 -0 -0 0 -0 0.23411 -58.81 2.1747 -47.227 -47.865 -45.562 -0 0 -0 -21.747 -36.347 -12.785 -21.747 -36.347 -12.785 -0 0 -0 -0 0 -0 -0 0 -0 -0 0 -0 -0 0 -0 -0 0 -0 -0 0 -0 -0 0 -0 -0 0 -0 -0 0 -0 -0 0 -0 -0 0 -0 
0 95.5 0 -0 0 -0 -0 0 -0 -0 0 -0 18.707 18.793 -44.413 -0 0 -0 -0 0 -0 15.984 -26.266 -3.5635 -97.142 -56.29 -107.08 -0 0 -0 -0 0 -0 2.7515 -58.77 4.9833 -56.12 -53.368 -52.666 -0 0 -0 -19.656 -37.489 -11.78 -19.656 -37.489 -11.78 -0 0 -0 -0 0 -0 -0 0 -0 -0 0 -0 -0 0 -0 -0 0 -0 -0 0 -0 -0 0 -0 -0 0 -0 -0 0 -0 -0 0 -0 -0 0 -0 
